<svg xmlns="http://www.w3.org/2000/svg" xmlns:xlink="http://www.w3.org/1999/xlink" viewBox="0 0 62 62"><defs><style>.a{fill:none;}.b{clip-path:url(#a);}.c{clip-path:url(#b);}.d{fill:#fff;}</style><clipPath id="a"><rect class="a" x="771.74" y="-416.27" width="347.09" height="694.17"/></clipPath><clipPath id="b"><rect class="a" x="272.41" y="-416.97" width="1047.59" height="697.28"/></clipPath></defs><title>methods</title><g class="b"><g class="c"><image width="1680" height="1010" transform="translate(-89.05 -519.2) scale(0.87)" xlink:href="methods1.png"/></g></g><path class="d" d="M50.68,2.33h-34A7.2,7.2,0,0,0,9.53,9.52V53.15a7.2,7.2,0,0,0,7.19,7.19h34A1.29,1.29,0,0,0,52,59.05S52,59,52,59s0-.05,0-.08V3.62A1.29,1.29,0,0,0,50.68,2.33ZM15.6,57.58a4.62,4.62,0,0,1-3.33-4.43V15A7.17,7.17,0,0,0,15.6,16.6Zm1.13-43.44a4.62,4.62,0,1,1,0-9.23H45.17a7.18,7.18,0,0,0,0,9.23H16.73ZM41,16.71v7.56l-1.54-1.15a1.29,1.29,0,0,0-1.54,0l-1.56,1.16V16.71Zm8.38,41H18v-41H33.8V26.86a1.29,1.29,0,0,0,2.06,1l2.85-2.12,2.83,2.11a1.29,1.29,0,0,0,2.06-1V16.71h5.8ZM49.4,14a4.61,4.61,0,0,1,0-8.86Z"/><path class="d" d="M27.54,35.78H40.19a1.29,1.29,0,0,0,0-2.58H27.54a1.29,1.29,0,0,0,0,2.58Z"/><path class="d" d="M22.65,42.57a1.29,1.29,0,0,0,1.29,1.29H43.79a1.29,1.29,0,1,0,0-2.58H23.94A1.29,1.29,0,0,0,22.65,42.57Z"/></svg>