<svg xmlns="http://www.w3.org/2000/svg" xmlns:xlink="http://www.w3.org/1999/xlink" viewBox="0 0 62 62"><defs><style>.a{fill:none;}.b{clip-path:url(#a);}.c{clip-path:url(#b);}.d{fill:#fff;}</style><clipPath id="a"><rect class="a" x="865.74" y="-416.27" width="347.09" height="694.17"/></clipPath><clipPath id="b"><rect class="a" x="366.41" y="-416.97" width="1047.59" height="697.28"/></clipPath></defs><title>pool</title><g class="b"><g class="c"><image width="1680" height="1010" transform="translate(4.95 -519.2) scale(0.87)" xlink:href="pool1.png"/></g></g><path class="d" d="M60.61,17.48H54.17V14.91a7.62,7.62,0,0,0-.78-3.15,6,6,0,0,0-5.66-3.29,6,6,0,0,0-5.66,3.29,7.62,7.62,0,0,0-.78,3.15v2.57H36.15V14.91a7.62,7.62,0,0,0-.78-3.15,6,6,0,0,0-5.66-3.29,6,6,0,0,0-5.66,3.29,7.63,7.63,0,0,0-.78,3.15v2.57H1.39A1.29,1.29,0,0,0,.1,18.77V34.19h0v7.72h0V52.24a1.29,1.29,0,0,0,1.29,1.29H60.61a1.29,1.29,0,0,0,1.29-1.29v-18h0V18.77A1.29,1.29,0,0,0,60.61,17.48ZM43.88,14.91a5.24,5.24,0,0,1,.51-2A3.39,3.39,0,0,1,47.74,11a3.39,3.39,0,0,1,3.32,1.8,5.15,5.15,0,0,1,.54,2.06v2.57H43.88Zm-18,0a5.2,5.2,0,0,1,.51-2A3.39,3.39,0,0,1,29.71,11,3.39,3.39,0,0,1,33,12.84a5.19,5.19,0,0,1,.54,2.06v2.57H25.85Zm0,5.15H41.3v2.58H25.85Zm0,5.15H41.3v2.57H25.85Zm0,5.15H41.3v3.71l-2-1a1.29,1.29,0,0,0-1.15,0l-2,1-2-1a1.29,1.29,0,0,0-1.15,0l-2,1-2-1a1.29,1.29,0,0,0-1.15,0l-2,1ZM2.68,20.06h20.6V32.93a1.29,1.29,0,0,0-.58.14l-2,1-2-1a1.29,1.29,0,0,0-1.15,0l-2,1-2-1a1.29,1.29,0,0,0-1.15,0l-2,1-2-1a1.29,1.29,0,0,0-1.15,0l-2.1,1-2.48-.82ZM59.32,51H2.68V43.73l2.17.72a1.29,1.29,0,0,0,1-.07l2-1,2,1a1.29,1.29,0,0,0,1.15,0l2-1,2,1a1.29,1.29,0,0,0,1.15,0l2-1,2,1a1.29,1.29,0,0,0,1.15,0l2-1,2,1a1.29,1.29,0,1,0,1.15-2.3l-2.57-1.29a1.29,1.29,0,0,0-1.15,0l-2,1-2-1a1.29,1.29,0,0,0-1.15,0l-2,1-2-1a1.29,1.29,0,0,0-1.15,0l-2,1-2-1a1.29,1.29,0,0,0-1.15,0l-2.1,1L2.68,41V36l2.17.72a1.29,1.29,0,0,0,1-.07l2-1,2,1a1.29,1.29,0,0,0,1.15,0l2-1,2,1a1.29,1.29,0,0,0,1.15,0l2-1,2,1a1.29,1.29,0,0,0,1.15,0l2-1,2,1a1.29,1.29,0,0,0,1.15,0l2-1,2,1a1.29,1.29,0,0,0,1.15,0l2-1,2,1a1.29,1.29,0,0,0,1.15,0l2-1,2,1a1.29,1.29,0,0,0,1.15,0l2-1,2,1a1.29,1.29,0,0,0,1.15,0l2-1,2,1a1.29,1.29,0,0,0,1.15,0l2-1,2,1a1.29,1.29,0,0,0,1,.07L59.32,36v7.72l-.71-.36a1.29,1.29,0,0,0-1.15,0l-2,1-2-1a1.29,1.29,0,0,0-1.15,0l-2,1-2-1a1.29,1.29,0,0,0-1.15,0l-2,1-2-1a1.29,1.29,0,0,0-1.15,0l-2,1-2-1a1.29,1.29,0,0,0-1.15,0l-2.57,1.29A1.29,1.29,0,1,0,35.44,47l2-1,2,1a1.29,1.29,0,0,0,1.15,0l2-1,2,1a1.29,1.29,0,0,0,1.15,0l2-1,2,1a1.29,1.29,0,0,0,1.15,0l2-1,2,1A1.29,1.29,0,0,0,56,47l2-1,1.29.65Zm0-17.66-2.48.82-2.1-1a1.29,1.29,0,0,0-1.15,0l-2,1-2-1a1.29,1.29,0,0,0-1.15,0l-2,1-2-1a1.28,1.28,0,0,0-.58-.14V20.06H59.32Z"/></svg>