<svg xmlns="http://www.w3.org/2000/svg" viewBox="0 0 62 62"><defs><style>.a{fill:#fff;}</style></defs><title>trainer</title><path class="a" d="M33.2,55.08H31V37.87l3.18-11.65a1.33,1.33,0,1,0-2.57-.7l-3,10.84H25.89l-3-10.84a1.33,1.33,0,1,0-2.57.7l3.18,11.65V55.08H21.32a1.33,1.33,0,0,0,0,2.67h3.54a1.33,1.33,0,0,0,1.33-1.33V39h2.12V56.41a1.33,1.33,0,0,0,1.33,1.33H33.2a1.33,1.33,0,0,0,0-2.67Z"/><path class="a" d="M50,12.08a1.33,1.33,0,0,0,.28,0l5.24-1.12a1.33,1.33,0,0,0-.56-2.61L49.68,9.44A1.33,1.33,0,0,0,50,12.08Z"/><path class="a" d="M33.91,15.87a5.81,5.81,0,0,1-5,2.64H24.45c-5.49,0-7.93,4.46-9.29,7.81l-5.26,13A1.33,1.33,0,0,0,10.64,41a1.32,1.32,0,0,0,.5.1,1.33,1.33,0,0,0,1.24-.83l5.26-13c1.75-4.31,3.79-6.15,6.82-6.15h4.49A8.49,8.49,0,0,0,36,17.46a1.33,1.33,0,0,0-2.14-1.58Z"/><path class="a" d="M35.09,6.19l-3.95.69A5.49,5.49,0,1,0,32,9.75c0-.1,0-.2,0-.3l3.61-.64a1.33,1.33,0,1,0-.46-2.63Zm-8.63.73a2.81,2.81,0,0,1,1.61.5l-3.91.69A2.82,2.82,0,0,1,26.46,6.92Zm0,5.65a2.83,2.83,0,0,1-2.59-1.7l5.41-1A2.83,2.83,0,0,1,26.46,12.57Z"/><path class="a" d="M55.48,14.8l-5.24-1.12a1.33,1.33,0,1,0-.56,2.61l5.24,1.12a1.33,1.33,0,0,0,.56-2.61Z"/><path class="a" d="M45.14,8.24l-6.4,1.42a1.33,1.33,0,0,0-1,1.3v6.83a1.33,1.33,0,1,0,2.67,0V16.43l4.78,1.06a1.33,1.33,0,0,0,1.62-1.3V9.54a1.33,1.33,0,0,0-1.62-1.3Zm-1,6.29-3.73-.83V12l3.73-.83Z"/></svg>